<?xml version="1.0" encoding="iso-8859-1"?>
<!-- Generator: Adobe Illustrator 19.0.0, SVG Export Plug-In . SVG Version: 6.00 Build 0)  -->
<svg version="1.1" id="Layer_1" xmlns="http://www.w3.org/2000/svg" xmlns:xlink="http://www.w3.org/1999/xlink" x="0px" y="0px"
	 viewBox="0 0 512 512" style="enable-background:new 0 0 512 512;" xml:space="preserve">
<circle style="fill:#FFD500;" cx="262.578" cy="255.999" r="191.98"/>
<circle style="fill:#F4581B;" cx="171.285" cy="255.999" r="161.086"/>
<g>
	<circle style="fill:#FFB44A;" cx="118.882" cy="321.723" r="43.285"/>
	<circle style="fill:#FFB44A;" cx="265.475" cy="217.171" r="26.969"/>
	<circle style="fill:#FFB44A;" cx="222.281" cy="155.986" r="17.279"/>
</g>
<g>
	<path style="fill:#3D3D3D;" d="M262.577,53.819c-38.761,0-76.371,10.993-108.858,31.789C67.492,94.433,0,167.482,0,255.999
		s67.492,161.568,153.718,170.392c32.489,20.797,70.097,31.789,108.858,31.789c111.483,0,202.181-90.698,202.181-202.181
		S374.06,53.819,262.577,53.819z M20.398,255.999c0-83.2,67.689-150.889,150.889-150.889s150.889,67.689,150.889,150.889
		s-67.689,150.889-150.889,150.889S20.398,339.2,20.398,255.999z M262.577,437.782c-22.78,0-45.114-4.223-66.007-12.364
		c82.502-12.258,146.005-83.558,146.005-169.418S279.073,98.84,196.569,86.582c20.894-8.141,43.227-12.364,66.008-12.364
		c100.236,0,181.782,81.548,181.782,181.782S362.813,437.782,262.577,437.782z"/>
	<path style="fill:#3D3D3D;" d="M262.577,42.052c5.633,0,10.199-4.566,10.199-10.199V16.776c0-5.633-4.566-10.199-10.199-10.199
		s-10.199,4.566-10.199,10.199v15.077C252.378,37.486,256.944,42.052,262.577,42.052z"/>
	<path style="fill:#3D3D3D;" d="M262.577,469.947c-5.633,0-10.199,4.566-10.199,10.199v15.077c0,5.633,4.566,10.199,10.199,10.199
		c5.633,0,10.199-4.566,10.199-10.199v-15.077C272.777,474.513,268.21,469.947,262.577,469.947z"/>
	<path style="fill:#3D3D3D;" d="M357.778,459.181c-2.156-5.204-8.122-7.677-13.325-5.52c-5.205,2.155-7.675,8.122-5.52,13.325
		l5.77,13.929c1.627,3.928,5.424,6.299,9.427,6.299c1.3,0,2.622-0.25,3.899-0.779c5.205-2.155,7.675-8.122,5.52-13.325
		L357.778,459.181z"/>
	<path style="fill:#3D3D3D;" d="M428.284,407.283c-3.983-3.983-10.441-3.983-14.424,0s-3.983,10.441,0,14.424l10.661,10.661
		c1.992,1.992,4.602,2.987,7.212,2.987c2.61,0,5.221-0.996,7.212-2.987c3.983-3.983,3.983-10.441,0-14.424L428.284,407.283z"/>
	<path style="fill:#3D3D3D;" d="M499.534,343.111l-25.581-10.596c-5.205-2.156-11.17,0.316-13.326,5.52
		c-2.156,5.205,0.316,11.17,5.52,13.326l25.581,10.596c1.277,0.529,2.599,0.779,3.899,0.779c4.002,0,7.799-2.371,9.427-6.298
		C507.208,351.233,504.737,345.266,499.534,343.111z"/>
	<path style="fill:#3D3D3D;" d="M501.801,245.8h-15.077c-5.633,0-10.199,4.566-10.199,10.199c0,5.633,4.566,10.199,10.199,10.199
		h15.077c5.633,0,10.199-4.566,10.199-10.199C512,250.366,507.434,245.8,501.801,245.8z"/>
	<path style="fill:#3D3D3D;" d="M469.665,180.424c1.3,0,2.623-0.25,3.899-0.779l13.93-5.77c5.205-2.155,7.676-8.122,5.52-13.325
		c-2.156-5.204-8.124-7.678-13.325-5.52l-13.93,5.77c-5.205,2.155-7.675,8.122-5.52,13.325
		C461.866,178.053,465.663,180.424,469.665,180.424z"/>
	<path style="fill:#3D3D3D;" d="M421.921,106.856c2.61,0,5.221-0.995,7.212-2.987l13.54-13.54c3.983-3.983,3.983-10.441,0-14.425
		c-3.983-3.983-10.441-3.983-14.425,0l-13.54,13.54c-3.983,3.983-3.983,10.441,0,14.425
		C416.701,105.859,419.311,106.856,421.921,106.856z"/>
	<path style="fill:#3D3D3D;" d="M344.452,58.338c1.276,0.529,2.598,0.779,3.899,0.779c4.002,0,7.8-2.371,9.427-6.299l5.77-13.929
		c2.155-5.205-0.316-11.17-5.52-13.325c-5.203-2.155-11.17,0.315-13.325,5.52l-5.77,13.929
		C336.777,50.216,339.248,56.183,344.452,58.338z"/>
	<path style="fill:#3D3D3D;" d="M419.882,245.8c-5.633,0-10.199,4.566-10.199,10.199c0,4.457-0.201,8.954-0.599,13.365
		c-0.505,5.61,3.634,10.567,9.244,11.072c0.311,0.028,0.62,0.042,0.926,0.042c5.22,0,9.669-3.986,10.146-9.285
		c0.451-5.017,0.68-10.129,0.68-15.194C430.081,250.366,425.515,245.8,419.882,245.8z"/>
	<path style="fill:#3D3D3D;" d="M413.542,301.522c-5.275-1.974-11.152,0.706-13.124,5.982
		c-11.57,30.949-33.579,57.428-61.972,74.556c-4.823,2.91-6.374,9.178-3.465,14.001c1.915,3.175,5.286,4.932,8.743,4.932
		c1.794,0,3.612-0.473,5.259-1.468c32.316-19.494,57.368-49.638,70.543-84.88C421.497,309.37,418.819,303.493,413.542,301.522z"/>
	<path style="fill:#3D3D3D;" d="M171.287,50.622c5.633,0,10.199-4.566,10.199-10.199V27.357c0-5.633-4.566-10.199-10.199-10.199
		c-5.633,0-10.199,4.566-10.199,10.199v13.067C161.088,46.056,165.654,50.622,171.287,50.622z"/>
	<path style="fill:#3D3D3D;" d="M171.287,461.377c-5.633,0-10.199,4.566-10.199,10.199v13.067c0,5.633,4.566,10.199,10.199,10.199
		c5.633,0,10.199-4.566,10.199-10.199v-13.067C181.487,465.943,176.92,461.377,171.287,461.377z"/>
	<path style="fill:#3D3D3D;" d="M118.88,268.239c-29.493,0-53.487,23.994-53.487,53.487s23.994,53.487,53.487,53.487
		s53.487-23.995,53.487-53.487S148.373,268.239,118.88,268.239z M118.88,354.813c-18.245,0-33.088-14.843-33.088-33.088
		s14.843-33.088,33.088-33.088s33.088,14.843,33.088,33.088S137.125,354.813,118.88,354.813z"/>
	<path style="fill:#3D3D3D;" d="M228.308,216.727c-0.117,9.927,3.638,19.306,10.575,26.409c6.936,7.103,16.224,11.079,26.152,11.197
		c0.151,0.002,0.301,0.003,0.451,0.003c9.76,0,18.963-3.746,25.958-10.579c14.661-14.32,14.94-37.898,0.62-52.56
		c-6.936-7.103-16.224-11.079-26.152-11.197c-9.885-0.121-19.306,3.638-26.408,10.575
		C232.401,197.512,228.424,206.8,228.308,216.727z M253.756,205.169c3.156-3.082,7.308-4.772,11.711-4.772
		c0.067,0,0.136,0,0.204,0.001c4.478,0.053,8.669,1.847,11.798,5.052l0,0c3.129,3.205,4.824,7.436,4.771,11.915
		c-0.053,4.479-1.847,8.669-5.052,11.799c-3.205,3.129-7.436,4.821-11.915,4.771c-4.479-0.053-8.669-1.847-11.799-5.052
		c-3.129-3.205-4.823-7.436-4.771-11.915C248.756,212.49,250.552,208.299,253.756,205.169z"/>
	<path style="fill:#3D3D3D;" d="M221.959,183.465c0.111,0.001,0.221,0.002,0.334,0.002c7.215,0,14.02-2.77,19.19-7.82
		c5.252-5.128,8.191-11.994,8.278-19.335c0.087-7.34-2.691-14.274-7.819-19.524c-5.128-5.251-11.995-8.19-19.335-8.277
		c-7.331-0.106-14.273,2.691-19.524,7.819c-5.251,5.128-8.19,11.995-8.277,19.335c-0.087,7.339,2.69,14.273,7.819,19.523
		C207.754,180.439,214.62,183.378,221.959,183.465z M217.337,150.923c1.333-1.301,3.085-2.015,4.945-2.015c0.029,0,0.057,0,0.086,0
		c1.891,0.022,3.661,0.78,4.981,2.133c1.322,1.352,2.037,3.139,2.015,5.03c-0.022,1.891-0.78,3.661-2.134,4.981
		c-1.352,1.322-3.127,2.007-5.03,2.015c-1.891-0.022-3.659-0.78-4.981-2.134c-1.321-1.353-2.037-3.139-2.014-5.03
		S215.983,152.244,217.337,150.923z"/>
</g>
<g>
</g>
<g>
</g>
<g>
</g>
<g>
</g>
<g>
</g>
<g>
</g>
<g>
</g>
<g>
</g>
<g>
</g>
<g>
</g>
<g>
</g>
<g>
</g>
<g>
</g>
<g>
</g>
<g>
</g>
</svg>
